# xmcd CD database file
#
# Track frame offsets:
#	150
#	23277
#	43092
#	70817
#	90342
#	116195
#	142685
#	159542
#	176227
#	199725
#	224652
#	243947
#
# Disc length: 3884 seconds
#
# Revision: 0
# Processed by: cddbd v1.5PL3 Copyright (c) Steve Scherf et al.
# Submitted via: CDex 1.51
#
DISCID=a10f2a0c
DTITLE=Heat Wave - Long Way For Nothing
DYEAR=2004
DGENRE=Rock and Roll
TTITLE0=Still Burning
TTITLE1=I Have No Time
TTITLE2=誰も居ない庭
TTITLE3=Sweet Heart/She's Hurt
TTITLE4=シベリアンハスキー
TTITLE5=Free
TTITLE6=International Holiday
TTITLE7=夢の底
TTITLE8=歌を紡ぐとき
TTITLE9=Born To Die
TTITLE10=それでも世界は美しい
TTITLE11=No Title
EXTD=YEAR: 2004
EXTT0=
EXTT1=
EXTT2=
EXTT3=
EXTT4=
EXTT5=
EXTT6=
EXTT7=
EXTT8=
EXTT9=
EXTT10=
EXTT11=
PLAYORDER=
